<svg width="350" height="400" viewBox="0 0 350 400" fill="none" xmlns="http://www.w3.org/2000/svg">
<rect width="350" height="400" fill="#1E1E1E"/>
<rect width="350" height="400" fill="white"/>
<rect x="193" y="399.055" width="79.2736" height="31" rx="15.5" transform="rotate(-45 193 399.055)" fill="#FFE600"/>
<rect x="265" y="392.355" width="50" height="10" rx="5" transform="rotate(-45 265 392.355)" fill="#382996"/>
<rect x="261" y="325.355" width="50" height="50" rx="10" transform="rotate(-45 261 325.355)" fill="#D9D9D9" fill-opacity="0.5"/>
<rect x="311" y="325.071" width="10" height="10" rx="5" transform="rotate(-45 311 325.071)" fill="#D9D9D9" fill-opacity="0.82"/>
<rect x="316" y="376.071" width="8" height="8" rx="4" transform="rotate(-45 316 376.071)" fill="#FF0000"/>
<rect x="311" y="376.093" width="138.724" height="15" rx="7.5" transform="rotate(-45 311 376.093)" fill="#FF0000" fill-opacity="0.5"/>
<rect x="286" y="279.093" width="138.724" height="4" rx="2" transform="rotate(-45 286 279.093)" fill="#063CF9"/>
<rect x="132" y="435.093" width="138.724" height="2" rx="1" transform="rotate(-45 132 435.093)" fill="#D9D9D9" fill-opacity="0.5"/>
<rect x="-39" y="17.0549" width="79.2736" height="31" rx="15.5" transform="rotate(-45 -39 17.0549)" fill="#063CF9"/>
<rect x="-31" y="122.355" width="50" height="10" rx="5" transform="rotate(-45 -31 122.355)" fill="#FF0000"/>
<rect x="29" y="73.0711" width="20" height="20" rx="10" transform="rotate(-45 29 73.0711)" fill="#D9D9D9" fill-opacity="0.5"/>
<rect x="10" y="66.0711" width="10" height="10" rx="5" transform="rotate(-45 10 66.0711)" fill="#D9D9D9" fill-opacity="0.5"/>
<rect x="42" y="48.0929" width="138.724" height="15" rx="7.5" transform="rotate(-45 42 48.0929)" fill="#382996"/>
<rect x="14.1508" y="43.0929" width="138.724" height="4" rx="2" transform="rotate(-45 14.1508 43.0929)" fill="#FFE600"/>
<rect x="49" y="23.0929" width="138.724" height="2" rx="1" transform="rotate(-45 49 23.0929)" fill="#D9D9D9" fill-opacity="0.5"/>
</svg>
